<?xml version="1.0" encoding="utf-8"?><svg height="97" width="345.41368078175896" xmlns="http://www.w3.org/2000/svg"><defs id="SvgjsDefs1001"></defs><g id="SvgjsG1007" featurekey="FRM3ZD-0" transform="matrix(6.42024564743042,0,0,6.42024564743042,1.7897486497551194,-31.404776136129293)" fill="#222831"><path d="M7.1 13.92 c0.38666 0.32 0.69336 0.68998 0.92002 1.11 s0.34 0.87666 0.34 1.37 s-0.12 0.96 -0.36 1.4 s-0.57 0.82334 -0.99 1.15 s-0.91 0.58332 -1.47 0.76998 s-1.16 0.28 -1.8 0.28 s-1.2367 -0.09334 -1.79 -0.28 s-1.0367 -0.44 -1.45 -0.76 l1.1 -4.14 c-0.58666 -0.54666 -0.88 -1.1867 -0.88 -1.92 c0 -0.44 0.11666 -0.85334 0.35 -1.24 s0.55 -0.72332 0.95 -1.01 s0.86666 -0.51332 1.4 -0.67998 s1.1 -0.25 1.7 -0.25 c0.54666 0 1.0667 0.06666 1.56 0.2 s0.93334 0.33334 1.32 0.6 z"></path></g><g id="SvgjsG1008" featurekey="vMvB0T-0" transform="matrix(4.668028354644775,0,0,4.668028354644775,68.5995951056196,1.8051099345651558)" fill="#222831"><path d="M0.3 18.82 q0.06 -0.66 0.41 -1.32 t0.83 -1.08 q2.14 1.3 4.06 1.3 q0.84 0 1.23 -0.38 t0.39 -0.94 q0 -0.94 -1.26 -1.48 l-2.36 -1 q-1.38 -0.62 -2.12 -1.49 t-0.74 -2.21 q0 -0.92 0.37 -1.68 t1.04 -1.32 t1.59 -0.87 t2.04 -0.31 q2.24 0 4.52 1.14 q-0.1 1.54 -1.08 2.4 q-2.04 -0.98 -3.6 -0.98 q-0.8 0 -1.2 0.36 t-0.4 0.82 q0 0.78 1.18 1.26 l2.4 1.02 q1.52 0.64 2.27 1.64 t0.75 2.32 q0 0.94 -0.34 1.72 t-1.01 1.35 t-1.67 0.89 t-2.34 0.32 q-2.6 0 -4.96 -1.48 z M23.42 19.22 q-0.68 0.96 -2.12 0.96 q-0.82 0 -1.23 -0.42 t-0.71 -1.42 l-0.76 -2.34 q-0.3 -0.94 -0.72 -1.34 t-1.14 -0.4 q-0.24 0 -0.88 0.04 l0 5.7 q-0.62 0.12 -1.6 0.12 t-1.6 -0.12 l0 -13.66 q0.62 -0.12 1.6 -0.12 t1.6 0.12 l0 5.28 l0.52 -0.02 q0.36 0 0.52 -0.13 t0.38 -0.55 l1.9 -3.58 q0.3 -0.62 0.64 -0.87 t1.06 -0.25 q0.8 0 1.86 0.1 l0.18 0.22 l-2.44 4.6 q-0.46 0.92 -1.12 1.46 q0.94 0.2 1.41 0.76 t0.79 1.5 l0.82 2.48 q0.16 0.46 0.24 0.68 t0.4 0.74 q0.14 0.2 0.4 0.46 z M29.860000000000003 15.719999999999999 l-1.58 0 l0 4.28 q-0.64 0.12 -1.6 0.12 q-0.98 0 -1.6 -0.12 l0 -13.56 l0.14 -0.14 q1.74 -0.04 2.89 -0.06 t1.75 -0.02 q1.1 0 2.01 0.3 t1.55 0.9 t0.99 1.49 t0.35 2.05 t-0.36 2.05 t-1 1.49 t-1.55 0.91 t-1.99 0.31 z M28.28 8.66 l0 4.66 q0.56 -0.02 0.89 -0.03 t0.43 -0.01 q0.54 0 0.9 -0.19 t0.58 -0.5 t0.32 -0.73 t0.1 -0.88 q0 -0.44 -0.1 -0.86 t-0.31 -0.74 t-0.55 -0.51 t-0.8 -0.19 l-0.82 0 t-0.64 -0.02 z M39.82000000000001 16.28 q0.54 1.56 2.18 1.56 q0.82 0 1.33 -0.41 t0.8 -1.04 t0.39 -1.41 t0.1 -1.54 q0 -0.7 -0.05 -1.56 t-0.29 -1.61 t-0.76 -1.26 t-1.52 -0.51 q-0.96 0 -1.47 0.49 t-0.76 1.21 t-0.31 1.53 t-0.06 1.43 q0 0.92 0.09 1.64 t0.33 1.48 z M38.2 19.04 q-2.14 -1.78 -2.14 -5.86 q0 -1.76 0.41 -3.09 t1.18 -2.23 t1.87 -1.36 t2.48 -0.46 t2.49 0.46 t1.88 1.37 t1.18 2.24 t0.41 3.07 t-0.41 3.07 t-1.18 2.23 t-1.88 1.36 t-2.49 0.46 q-2.28 0 -3.8 -1.26 z M48.980000000000004 18.82 q0.06 -0.66 0.41 -1.32 t0.83 -1.08 q2.14 1.3 4.06 1.3 q0.84 0 1.23 -0.38 t0.39 -0.94 q0 -0.94 -1.26 -1.48 l-2.36 -1 q-1.38 -0.62 -2.12 -1.49 t-0.74 -2.21 q0 -0.92 0.37 -1.68 t1.04 -1.32 t1.59 -0.87 t2.04 -0.31 q2.24 0 4.52 1.14 q-0.1 1.54 -1.08 2.4 q-2.04 -0.98 -3.6 -0.98 q-0.8 0 -1.2 0.36 t-0.4 0.82 q0 0.78 1.18 1.26 l2.4 1.02 q1.52 0.64 2.27 1.64 t0.75 2.32 q0 0.94 -0.34 1.72 t-1.01 1.35 t-1.67 0.89 t-2.34 0.32 q-2.6 0 -4.96 -1.48 z"></path></g></svg>