<?xml version="1.0" encoding="UTF-8" standalone="no" ?>
<!DOCTYPE svg PUBLIC "-//W3C//DTD SVG 1.1//EN" "http://www.w3.org/Graphics/SVG/1.1/DTD/svg11.dtd">
<svg xmlns="http://www.w3.org/2000/svg" xmlns:xlink="http://www.w3.org/1999/xlink" version="1.1" width="1024" height="1024" viewBox="0 0 1024 1024" xml:space="preserve">
<desc>Created with Fabric.js 4.6.0</desc>
<defs>
</defs>
<g transform="matrix(89.51 0 0 89.51 512 512)" id="QpZ2nxQrNDwBA94R2aQop"  >
<path style="stroke: none; stroke-width: 1; stroke-dasharray: none; stroke-linecap: butt; stroke-dashoffset: 0; stroke-linejoin: miter; stroke-miterlimit: 4; fill: rgb(34,40,49); fill-rule: nonzero; opacity: 1;" vector-effect="non-scaling-stroke"  transform=" translate(-4.43, -14.86)" d="M 7.1 13.92 C 7.48666 14.24 7.79336 14.60998 8.020019999999999 15.03 C 8.246679999999998 15.450019999999999 8.360019999999999 15.906659999999999 8.360019999999999 16.4 C 8.360019999999999 16.89334 8.24002 17.36 8.00002 17.799999999999997 C 7.760019999999999 18.239999999999995 7.430019999999999 18.62334 7.010019999999999 18.949999999999996 C 6.590019999999999 19.276659999999993 6.100019999999999 19.533319999999996 5.540019999999999 19.719979999999996 C 4.98002 19.906639999999996 4.380019999999999 19.999979999999997 3.7400199999999995 19.999979999999997 C 3.1000199999999998 19.999979999999997 2.5033199999999995 19.906639999999996 1.9500199999999994 19.719979999999996 C 1.3967199999999993 19.533319999999996 0.9133199999999995 19.279979999999995 0.5000199999999995 18.959979999999995 L 1.6000199999999996 14.819979999999994 C 1.0133599999999996 14.273319999999995 0.7200199999999995 13.633279999999994 0.7200199999999995 12.899979999999994 C 0.7200199999999995 12.459979999999995 0.8366799999999995 12.046639999999995 1.0700199999999995 11.659979999999994 C 1.3033599999999996 11.273319999999993 1.6200199999999996 10.936659999999994 2.0200199999999997 10.649979999999994 C 2.42002 10.363299999999994 2.8866799999999997 10.136659999999994 3.4200199999999996 9.969999999999994 C 3.9533599999999995 9.803339999999993 4.52002 9.719999999999994 5.120019999999999 9.719999999999994 C 5.6666799999999995 9.719999999999994 6.186719999999999 9.786659999999994 6.680019999999999 9.919999999999993 C 7.173319999999999 10.053339999999992 7.613359999999999 10.253339999999993 8.00002 10.519999999999992 z" stroke-linecap="round" />
</g>
</svg>